<svg xmlns="http://www.w3.org/2000/svg" width="500" height="500" viewBox="0 0 500 500" version="1.1"><path d="M 20.208 45.235 C 20.453 46.481, 36.707 92.551, 56.327 147.613 C 92 247.725, 92 247.725, 92 352.378 C 92 457.032, 92 457.032, 119.750 456.766 C 147.500 456.500, 147.500 456.500, 148 351 C 148.500 245.500, 148.500 245.500, 170.911 182.744 C 183.236 148.228, 193.417 120.103, 193.535 120.244 C 193.652 120.385, 203.288 149.647, 214.949 185.271 C 236.149 250.043, 236.149 250.043, 202.571 352.271 C 184.104 408.497, 168.995 455.063, 168.997 455.750 C 168.999 456.721, 175.453 457, 197.923 457 C 226.846 457, 226.846 457, 245.461 400.250 C 255.699 369.038, 264.447 342.600, 264.900 341.500 C 265.549 339.928, 266.410 341.639, 268.928 349.500 C 270.689 355, 279.336 381.438, 288.144 408.250 C 304.158 457, 304.158 457, 333.079 457 C 356.340 457, 362 456.742, 362 455.682 C 362 454.958, 346.903 408.381, 328.451 352.179 C 294.903 249.994, 294.903 249.994, 328.451 147.984 C 346.903 91.879, 362 45.305, 362 44.487 C 362 43.205, 358.005 43, 333.047 43 C 304.094 43, 304.094 43, 300.982 52.750 C 299.271 58.113, 290.610 84.550, 281.736 111.500 C 265.602 160.500, 265.602 160.500, 246.247 101.750 C 226.893 43, 226.893 43, 194.472 43 C 162.051 43, 162.051 43, 160.703 45.750 C 159.962 47.263, 150.615 73.138, 139.931 103.250 C 129.248 133.363, 120.242 158, 119.919 158 C 119.595 158, 110.143 132.238, 98.915 100.750 C 78.500 43.500, 78.500 43.500, 49.130 43.235 C 19.761 42.969, 19.761 42.969, 20.208 45.235 M 365 214.297 C 362.525 215.005, 358.338 216.670, 355.696 217.997 C 353.053 219.323, 348.859 222.582, 346.375 225.237 C 343.891 227.893, 340.979 232.053, 339.905 234.483 C 338.830 236.912, 337.496 241.360, 336.940 244.367 C 336.264 248.021, 336.260 251.885, 336.926 256.021 C 337.474 259.424, 338.933 264.299, 340.168 266.854 C 341.404 269.409, 344.469 273.556, 346.979 276.069 C 349.490 278.583, 354.065 281.831, 357.146 283.289 C 360.227 284.747, 365.859 286.453, 369.661 287.081 C 374.639 287.903, 378.459 287.929, 383.310 287.174 C 387.015 286.597, 392.453 285.024, 395.393 283.677 C 398.334 282.331, 402.662 279.493, 405.012 277.370 C 407.361 275.248, 410.307 271.890, 411.557 269.909 C 412.808 267.928, 414.544 263.906, 415.416 260.972 C 416.287 258.038, 417 253.090, 417 249.977 C 417 246.865, 416.367 242.213, 415.592 239.640 C 414.818 237.068, 412.751 232.728, 410.998 229.998 C 409.246 227.267, 405.591 223.402, 402.875 221.409 C 400.160 219.415, 395.590 216.877, 392.719 215.769 C 389.327 214.458, 384.350 213.622, 378.500 213.380 C 373.018 213.154, 367.741 213.512, 365 214.297 M 443.734 214.088 C 441.663 214.576, 438.063 215.932, 435.734 217.100 C 433.406 218.269, 430.444 220.187, 429.153 221.363 C 427.862 222.538, 426.014 225.075, 425.047 227 C 424.080 228.925, 423.004 231.994, 422.656 233.819 C 422.307 235.644, 422.492 239.244, 423.067 241.819 C 423.715 244.727, 425.321 247.764, 427.305 249.835 C 429.062 251.670, 431.777 253.839, 433.337 254.656 C 434.898 255.473, 441.401 257.480, 447.789 259.116 C 454.177 260.752, 459.988 262.575, 460.702 263.168 C 461.416 263.760, 462 264.849, 462 265.587 C 462 266.326, 461.130 267.395, 460.066 267.965 C 459.002 268.534, 455.289 268.988, 451.816 268.974 C 447.816 268.958, 443.116 268.101, 439 266.637 C 435.425 265.366, 431.722 263.983, 430.770 263.563 C 429.340 262.934, 428.423 264.156, 425.485 270.602 C 423.530 274.892, 422.065 279.097, 422.228 279.948 C 422.397 280.824, 425.194 282.445, 428.683 283.688 C 432.069 284.895, 438.565 286.393, 443.119 287.016 C 447.721 287.646, 454.087 287.839, 457.450 287.450 C 460.777 287.065, 465.456 286.162, 467.847 285.443 C 470.238 284.725, 473.979 282.900, 476.160 281.389 C 478.342 279.877, 481.200 276.809, 482.512 274.570 C 483.823 272.332, 485.187 268.681, 485.543 266.458 C 485.900 264.226, 485.652 260.419, 484.991 257.958 C 484.211 255.058, 482.424 252.197, 479.879 249.773 C 477.086 247.114, 474.037 245.494, 469.233 244.117 C 465.530 243.056, 459.358 241.462, 455.518 240.576 C 451.678 239.690, 447.949 238.378, 447.231 237.660 C 446.514 236.942, 446.214 235.605, 446.566 234.688 C 446.918 233.772, 448.971 232.546, 451.130 231.965 C 453.886 231.223, 456.755 231.223, 460.774 231.966 C 463.921 232.548, 468.419 233.758, 470.770 234.656 C 473.121 235.554, 475.231 236.102, 475.458 235.875 C 475.686 235.647, 477.421 231.789, 479.314 227.301 C 482.755 219.141, 482.755 219.141, 478.128 217.159 C 475.582 216.070, 470.830 214.688, 467.566 214.089 C 464.303 213.490, 458.453 213.045, 454.566 213.100 C 450.680 213.156, 445.806 213.600, 443.734 214.088 M 367.825 235.473 C 365.440 237.094, 363.594 239.496, 362.467 242.447 C 361.289 245.531, 360.893 248.701, 361.210 252.516 C 361.492 255.918, 362.451 259.136, 363.678 260.791 C 364.781 262.281, 367.172 264.512, 368.990 265.750 C 371.041 267.146, 373.796 268, 376.247 268 C 378.420 268, 381.768 267.255, 383.688 266.344 C 385.608 265.433, 388.343 262.927, 389.767 260.775 C 391.820 257.674, 392.371 255.582, 392.427 250.682 C 392.478 246.155, 391.948 243.564, 390.444 241.003 C 389.316 239.080, 386.887 236.493, 385.048 235.253 C 382.660 233.644, 380.240 233, 376.584 233 C 372.786 233, 370.525 233.638, 367.825 235.473 M 373.378 415.378 C 371.661 416.158, 369.524 417.842, 368.628 419.120 C 367.248 421.091, 367 424.683, 367 442.723 C 367 464, 367 464, 370.500 464 C 374 464, 374 464, 374 457.605 C 374 451.211, 374 451.211, 377.689 452.043 C 379.718 452.500, 382.755 452.614, 384.439 452.296 C 386.122 451.978, 388.283 451.318, 389.240 450.830 C 390.196 450.341, 391.659 448.626, 392.490 447.020 C 393.320 445.414, 394 442.788, 394 441.185 C 394 439.581, 393.067 437.084, 391.927 435.635 C 390.788 434.186, 389.213 433, 388.427 433 C 387.642 433, 387 432.795, 387 432.545 C 387 432.295, 388.125 430.966, 389.500 429.591 C 390.875 428.216, 392 425.967, 392 424.593 C 392 423.218, 391.518 421.036, 390.929 419.743 C 390.340 418.450, 388.955 416.829, 387.852 416.140 C 386.750 415.451, 383.744 414.679, 381.174 414.424 C 378.320 414.141, 375.284 414.513, 373.378 415.378 M 375.487 422.380 C 374.273 424.232, 373.991 427.052, 374.214 435.091 C 374.500 445.422, 374.500 445.422, 377.705 446.076 C 379.494 446.440, 381.924 446.226, 383.205 445.591 C 384.605 444.897, 385.626 443.367, 385.822 441.666 C 385.999 440.133, 385.629 438.258, 384.999 437.499 C 384.369 436.740, 382.649 435.980, 381.177 435.809 C 379.165 435.577, 378.427 434.875, 378.206 432.986 C 377.972 430.979, 378.527 430.240, 380.956 429.323 C 383.380 428.408, 384 427.585, 384 425.287 C 384 423.699, 383.460 421.860, 382.800 421.200 C 382.140 420.540, 380.575 420, 379.323 420 C 378.028 420, 376.373 421.027, 375.487 422.380" stroke="none" fill="#fafafa" fill-rule="evenodd"/></svg>