<svg xmlns="http://www.w3.org/2000/svg" width="500" height="500" viewBox="0 0 500 500" version="1.1">
    <path d="M 21 44.832 C 21 45.289, 37.087 90.627, 56.750 145.582 C 92.500 245.500, 92.500 245.500, 92.768 350.766 C 93.036 456.033, 93.036 456.033, 119.768 455.766 C 146.500 455.500, 146.500 455.500, 146.755 351.406 C 147.009 247.312, 147.009 247.312, 169.596 183.906 C 182.018 149.033, 192.533 119.873, 192.961 119.106 C 193.474 118.189, 194.618 120.408, 196.312 125.606 C 197.727 129.948, 207.484 159.707, 217.996 191.737 C 237.108 249.974, 237.108 249.974, 203.554 352 C 185.099 408.114, 170 454.477, 170 455.028 C 170 455.681, 179.842 455.938, 198.204 455.766 C 226.409 455.500, 226.409 455.500, 245.601 397.187 C 256.156 365.115, 265.035 338.632, 265.330 338.336 C 265.626 338.041, 274.585 364.282, 285.240 396.649 C 304.612 455.500, 304.612 455.500, 332.806 455.766 C 352.823 455.954, 361 455.712, 361 454.930 C 361 454.324, 350.620 422.255, 337.934 383.664 C 325.248 345.074, 310.158 299.241, 304.402 281.813 C 293.935 250.126, 293.935 250.126, 327.467 148.189 C 345.910 92.123, 361 45.737, 361 45.110 C 361 44.276, 353.416 44.040, 332.822 44.234 C 304.643 44.500, 304.643 44.500, 285.513 102.725 C 274.992 134.749, 266.111 161.222, 265.778 161.556 C 265.444 161.889, 256.457 135.688, 245.804 103.331 C 226.437 44.500, 226.437 44.500, 194.751 44.236 C 163.064 43.972, 163.064 43.972, 161.678 46.236 C 160.915 47.481, 151.393 73.587, 140.517 104.250 C 129.641 134.912, 120.399 160, 119.978 160 C 119.558 160, 118.908 159.213, 118.535 158.250 C 118.161 157.287, 109.054 131.750, 98.297 101.500 C 87.539 71.250, 78.292 45.938, 77.747 45.250 C 76.996 44.304, 69.984 44, 48.878 44 C 33.545 44, 21 44.374, 21 44.832 M 370.638 214.207 C 367.414 214.619, 362.385 216.051, 359.463 217.388 C 356.541 218.726, 352.028 221.774, 349.434 224.160 C 346.841 226.547, 343.685 230.134, 342.422 232.131 C 341.159 234.128, 339.367 238.371, 338.440 241.559 C 337.296 245.493, 336.927 249.262, 337.292 253.284 C 337.631 257.018, 338.985 261.558, 340.952 265.553 C 342.839 269.386, 345.938 273.553, 348.787 276.087 C 351.379 278.393, 356.425 281.678, 360 283.387 C 365.951 286.232, 367.345 286.493, 376.500 286.470 C 384.547 286.449, 387.622 285.997, 392.247 284.152 C 395.552 282.833, 400.346 279.708, 403.533 276.796 C 406.579 274.012, 410.201 269.807, 411.581 267.451 C 412.962 265.096, 414.537 261.668, 415.082 259.834 C 415.628 258, 416.079 253.526, 416.085 249.890 C 416.092 245.984, 415.393 241.486, 414.377 238.890 C 413.431 236.476, 411.360 232.584, 409.775 230.242 C 408.190 227.900, 404.527 224.197, 401.635 222.014 C 398.743 219.831, 394.380 217.317, 391.938 216.429 C 389.497 215.540, 385.025 214.508, 382 214.136 C 378.975 213.763, 373.862 213.796, 370.638 214.207 M 441.205 215.834 C 438.293 216.873, 434.243 219.065, 432.205 220.704 C 430.167 222.344, 427.510 225.139, 426.300 226.916 C 425.090 228.693, 423.807 232.105, 423.448 234.498 C 423.072 237.003, 423.292 240.354, 423.964 242.392 C 424.625 244.395, 427.243 247.831, 429.986 250.298 C 433.632 253.576, 436.663 255.201, 442.170 256.834 C 446.201 258.029, 449.981 259.005, 450.568 259.003 C 451.156 259.001, 453.969 259.692, 456.818 260.539 C 461.743 262.001, 462 262.246, 462 265.477 C 462 268.746, 461.824 268.904, 457.446 269.560 C 454.941 269.936, 450.554 269.947, 447.696 269.586 C 444.838 269.224, 439.647 267.994, 436.161 266.853 C 432.675 265.712, 429.488 265.165, 429.080 265.639 C 428.671 266.113, 427.107 269.410, 425.604 272.966 C 423.001 279.122, 422.956 279.495, 424.671 280.749 C 425.661 281.473, 429.403 282.979, 432.986 284.096 C 436.569 285.213, 443.325 286.381, 448 286.691 C 452.972 287.021, 458.831 286.769, 462.117 286.084 C 465.206 285.440, 470.138 283.471, 473.078 281.707 C 476.017 279.943, 479.790 276.549, 481.461 274.164 C 484.059 270.458, 484.500 268.921, 484.500 263.586 C 484.500 258.299, 484.074 256.786, 481.716 253.694 C 480.185 251.687, 477.021 248.925, 474.685 247.556 C 472.349 246.187, 466.402 244.128, 461.469 242.981 C 456.536 241.834, 451.038 240.434, 449.250 239.870 C 446.446 238.985, 446 238.392, 446 235.539 C 446 232.956, 446.492 232.101, 448.250 231.630 C 449.488 231.299, 452.989 231.021, 456.032 231.014 C 459.075 231.006, 464.025 231.692, 467.032 232.538 C 470.039 233.384, 473.087 234.171, 473.805 234.288 C 474.555 234.410, 476.363 231.586, 478.055 227.651 C 479.675 223.884, 481 220.429, 481 219.973 C 481 219.517, 478.413 218.146, 475.250 216.926 C 470.848 215.228, 466.805 214.619, 458 214.326 C 448.576 214.014, 445.544 214.286, 441.205 215.834 M 367.886 233.999 C 365.719 235.144, 363.525 237.429, 362.408 239.704 C 361.140 242.288, 360.538 245.735, 360.523 250.500 C 360.506 255.732, 361.005 258.358, 362.500 260.895 C 363.600 262.763, 365.770 265.238, 367.323 266.395 C 369.500 268.018, 371.561 268.490, 376.323 268.458 C 380.256 268.431, 383.712 267.770, 385.838 266.637 C 388.050 265.458, 389.855 263.322, 391.191 260.302 C 392.758 256.759, 393.126 254.162, 392.846 248.619 C 392.567 243.087, 391.950 240.739, 390.094 238.132 C 388.779 236.285, 386.209 234.150, 384.383 233.387 C 382.558 232.624, 378.912 232.020, 376.282 232.044 C 373.583 232.069, 369.926 232.920, 367.886 233.999" stroke="none" fill="#ffffff" fill-rule="evenodd"/><path d="M 193 118.500 C 193 118.775, 193.225 119, 193.500 119 C 193.775 119, 194 118.775, 194 118.500 C 194 118.225, 193.775 118, 193.500 118 C 193.225 118, 193 118.225, 193 118.500 M 92.482 351.500 C 92.482 408.700, 92.602 431.953, 92.750 403.174 C 92.897 374.394, 92.897 327.594, 92.750 299.174 C 92.602 270.753, 92.482 294.300, 92.482 351.500 M 294 250 C 294 250.733, 294.300 251.033, 294.667 250.667 C 295.033 250.300, 295.033 249.700, 294.667 249.333 C 294.300 248.967, 294 249.267, 294 250" stroke="none" fill="#ffffff" fill-rule="evenodd"/>
</svg>